<svg width="75" height="76" viewBox="0 0 75 76" fill="none" xmlns="http://www.w3.org/2000/svg">
<circle cx="37.5" cy="38.3193" r="37" stroke="#EBE2DB" stroke-opacity="0.5"/>
<circle cx="37.782" cy="38.6012" r="34.9624" fill="#C4C4C4" fill-opacity="0.3"/>
<g filter="url(#filter0_d)">
<circle cx="37.5002" cy="38.3192" r="22.8383" fill="white" fill-opacity="0.5"/>
</g>
<g filter="url(#filter1_d)">
<path d="M43.0471 36.1062C42.9499 35.2556 42.7072 34.5878 42.2762 33.9962C41.7165 33.2345 41.0013 32.7783 39.9424 32.5077C39.2523 32.3274 38.9734 32.3481 38.7239 32.5937C38.4914 32.8237 38.446 33.285 38.6236 33.5837C38.7486 33.8004 38.8927 33.8781 39.2936 33.9629C39.8274 34.0687 40.1964 34.206 40.532 34.4127C41.2443 34.8557 41.576 35.5489 41.6115 36.6713C41.6281 37.1983 41.6704 37.3603 41.8412 37.5472C42.158 37.8889 42.7216 37.8224 42.9607 37.4136C43.0484 37.2595 43.0618 37.1924 43.0711 36.8345C43.0772 36.613 43.0684 36.2833 43.0471 36.1062Z" fill="#7FFF00"/>
<path d="M45.8374 37.0651C45.6967 34.4592 44.7504 32.3627 43.0569 30.8876C42.1027 30.0587 40.9493 29.4888 39.6851 29.2116C39.222 29.1125 38.3693 29.0321 38.223 29.0781C38.085 29.1206 37.8898 29.2816 37.8027 29.4272C37.7107 29.5851 37.69 29.9376 37.7685 30.1415C37.8952 30.4823 38.1309 30.6028 38.791 30.665C39.8086 30.7609 40.8583 31.146 41.6513 31.7161C42.5568 32.3652 43.2765 33.2531 43.7421 34.2964C44.1444 35.1928 44.3919 36.4847 44.385 37.6415C44.3827 38.0599 44.4427 38.2962 44.5989 38.4689C44.8347 38.7345 45.1784 38.7926 45.4817 38.6162C45.8179 38.4258 45.8965 38.0915 45.8374 37.0651Z" fill="#7FFF00"/>
<path d="M48.9246 47.0999C48.8773 46.9509 48.7668 46.7212 48.6879 46.5893C48.1909 45.7809 45.5207 43.53 44.1876 42.7939C43.4264 42.3727 42.8623 42.2323 42.4442 42.3642C41.9946 42.5004 41.7579 42.7258 41.0046 43.7343C40.7009 44.1385 40.3893 44.5172 40.3065 44.5767C40.1013 44.7299 39.699 44.8533 39.4151 44.8533C38.7564 44.849 37.5613 44.3895 36.6423 43.7853C35.9284 43.3173 35.0133 42.4791 34.3112 41.6494C33.4829 40.675 32.919 39.8156 32.4732 38.8454C31.8974 37.5988 31.7514 36.8371 31.992 36.2797C32.0512 36.1393 32.1301 35.9904 32.1655 35.9436C32.2011 35.9011 32.5718 35.5734 32.982 35.216C33.7867 34.5268 33.9168 34.3693 34.0667 33.897C34.256 33.2971 34.2047 32.6844 33.9129 32.0674C33.688 31.5994 33.1003 30.5782 32.6744 29.9187C32.1104 29.0508 30.7062 27.1956 30.4261 26.9445C29.9213 26.5021 29.2745 26.4254 28.5605 26.7233C27.8072 27.0382 26.3951 28.2636 25.7917 29.1188C25.2474 29.8932 25.0384 30.4421 25.0068 31.1654C24.9792 31.761 25.0265 32.0078 25.3184 32.7695C27.6021 38.7433 31.0099 43.513 35.6917 47.2999C38.1371 49.2784 40.6733 50.7846 43.3041 51.8143C44.8383 52.4142 45.5049 52.444 46.2898 51.9505C46.6211 51.7377 47.4415 50.8314 47.8991 50.1719C48.6564 49.0741 48.9364 48.5678 49.0153 48.1636C49.0705 47.8871 49.0271 47.4063 48.9246 47.0999Z" fill="#7FFF00"/>
<path d="M48.6775 37.663C48.627 36.189 48.3966 34.9799 47.9162 33.6319C47.4418 32.3059 46.9618 31.4406 46.0552 30.2703C45.198 29.173 44.5323 28.5464 43.4764 27.849C42.0032 26.8773 40.2104 26.2342 38.2013 25.9638C37.5161 25.8693 37.3611 25.876 37.1509 26.0271C36.7436 26.3133 36.749 27.0271 37.1576 27.309C37.2929 27.3987 37.4129 27.4314 37.961 27.5086C38.8023 27.6307 39.3433 27.7456 39.9853 27.9343C42.5025 28.6755 44.4383 30.1905 45.7325 32.4395C46.8155 34.3141 47.2651 36.1888 47.2012 38.5831C47.179 39.3925 47.1951 39.535 47.31 39.7294C47.53 40.0919 48.1102 40.1636 48.4078 39.8628C48.5929 39.6795 48.6279 39.5419 48.6643 38.8491C48.6818 38.4877 48.6856 37.9542 48.6775 37.663Z" fill="#7FFF00"/>
</g>
<defs>
<filter id="filter0_d" x="10.6619" y="15.4808" width="53.6767" height="53.6767" filterUnits="userSpaceOnUse" color-interpolation-filters="sRGB">
<feFlood flood-opacity="0" result="BackgroundImageFix"/>
<feColorMatrix in="SourceAlpha" type="matrix" values="0 0 0 0 0 0 0 0 0 0 0 0 0 0 0 0 0 0 127 0"/>
<feOffset dy="4"/>
<feGaussianBlur stdDeviation="2"/>
<feColorMatrix type="matrix" values="0 0 0 0 0 0 0 0 0 0 0 0 0 0 0 0 0 0 0.25 0"/>
<feBlend mode="normal" in2="BackgroundImageFix" result="effect1_dropShadow"/>
<feBlend mode="normal" in="SourceGraphic" in2="effect1_dropShadow" result="shape"/>
</filter>
<filter id="filter1_d" x="21" y="25.9015" width="32.0394" height="34.3933" filterUnits="userSpaceOnUse" color-interpolation-filters="sRGB">
<feFlood flood-opacity="0" result="BackgroundImageFix"/>
<feColorMatrix in="SourceAlpha" type="matrix" values="0 0 0 0 0 0 0 0 0 0 0 0 0 0 0 0 0 0 127 0"/>
<feOffset dy="4"/>
<feGaussianBlur stdDeviation="2"/>
<feColorMatrix type="matrix" values="0 0 0 0 0 0 0 0 0 0 0 0 0 0 0 0 0 0 0.25 0"/>
<feBlend mode="normal" in2="BackgroundImageFix" result="effect1_dropShadow"/>
<feBlend mode="normal" in="SourceGraphic" in2="effect1_dropShadow" result="shape"/>
</filter>
</defs>
</svg>
