<svg width="77" height="125" viewBox="0 0 77 125" fill="none" xmlns="http://www.w3.org/2000/svg">
<path d="M41.4609 124.293V110.055C51.3047 109.703 57.75 105.836 60.7969 98.4531C61.7344 95.875 62.2031 93.0625 62.2031 90.0156C62.2031 77.5938 55.0547 70.8555 40.7578 69.8008C39.3516 69.6836 37.9453 69.625 36.5391 69.625V55.5625C53.5312 55.4453 62.0859 48.707 62.2031 35.3477C62.2031 25.5039 57.8672 19.1758 49.1953 16.3633C46.7344 15.6602 44.1562 15.25 41.4609 15.1328V0.894531C53.4141 0.894531 62.7305 4.9375 69.4102 13.0234C74.2148 19.1172 76.6172 26.4414 76.6172 34.9961C76.5 47.6523 72.1641 56.8516 63.6094 62.5938C72.2812 68.5703 76.6172 77.7695 76.6172 90.1914C76.6172 103.082 71.5781 112.633 61.5 118.844C55.6406 122.477 48.9609 124.293 41.4609 124.293ZM0.328125 92.8281L13.6875 90.1914C14.9766 100.27 19.7227 106.656 27.9258 109.352C29.4492 109.82 30.7383 110.055 31.793 110.055V124.293C21.4805 123.824 13.1602 119.254 6.83203 110.582C2.84766 105.074 0.679688 99.1562 0.328125 92.8281ZM0.328125 32.5352C0.914062 23.1602 4.83984 15.25 12.1055 8.80469C17.9648 3.88281 24.5273 1.24609 31.793 0.894531V15.1328C23.707 16.1875 18.1992 20.582 15.2695 28.3164C14.5664 30.543 14.0391 32.8281 13.6875 35.1719L0.328125 32.5352Z" fill="#F8E465"/>
</svg>
