<svg width="30" height="128" viewBox="0 0 30 128" fill="none" xmlns="http://www.w3.org/2000/svg">
<path d="M2.15234 25.4531V11.0391L12.1719 2.95312H27.6406V126H12.1719V25.4531H2.15234Z" fill="#F7D601" fill-opacity="0.6"/>
<path d="M2.15234 25.4531H0.152344V27.4531H2.15234V25.4531ZM2.15234 11.0391L0.896305 9.48267L0.152344 10.0831V11.0391H2.15234ZM12.1719 2.95312V0.953125H11.4655L10.9158 1.39673L12.1719 2.95312ZM27.6406 2.95312H29.6406V0.953125H27.6406V2.95312ZM27.6406 126V128H29.6406V126H27.6406ZM12.1719 126H10.1719V128H12.1719V126ZM12.1719 25.4531H14.1719V23.4531H12.1719V25.4531ZM4.15234 25.4531V11.0391H0.152344V25.4531H4.15234ZM3.40838 12.5955L13.4279 4.50952L10.9158 1.39673L0.896305 9.48267L3.40838 12.5955ZM12.1719 4.95312H27.6406V0.953125H12.1719V4.95312ZM25.6406 2.95312V126H29.6406V2.95312H25.6406ZM27.6406 124H12.1719V128H27.6406V124ZM14.1719 126V25.4531H10.1719V126H14.1719ZM12.1719 23.4531H2.15234V27.4531H12.1719V23.4531Z" fill="#F5E161"/>
</svg>
