<svg width="85" height="129" viewBox="0 0 85 129" fill="none" xmlns="http://www.w3.org/2000/svg">
<path d="M4.38281 63.7734L9.48047 2.95312H72.2344V17.1914L22.8398 17.3672L20.0273 52.3477C25.1836 49.0664 30.6914 47.4258 36.5508 47.4258V61.1367C28.582 61.4883 22.2539 65.0039 17.5664 71.6836L4.38281 63.7734ZM45.1641 126V112.113C52.1953 111.527 57.9961 108.363 62.5664 102.621C66.1992 98.0508 68.0156 92.7188 68.0156 86.625C68.0156 75.9609 63.6797 68.4023 55.0078 63.9492C51.7266 62.1914 48.4453 61.2539 45.1641 61.1367V47.4258C59.9297 47.543 70.5352 53.5195 76.9805 65.3555C80.4961 71.8008 82.2539 78.9492 82.2539 86.8008C82.2539 100.863 77.0391 111.586 66.6094 118.969C60.1641 123.422 53.0156 125.766 45.1641 126ZM3.32812 101.566L16.5117 97.5234C19.4414 105.727 25.418 110.414 34.4414 111.586C35.0273 111.703 35.6133 111.762 36.1992 111.762V126C26.2383 126 17.8008 122.367 10.8867 115.102C7.01953 110.883 4.5 106.371 3.32812 101.566Z" fill="#F7D601" fill-opacity="0.6"/>
<path d="M4.38281 63.7734L2.3898 63.6064L2.28577 64.8476L3.35382 65.4884L4.38281 63.7734ZM9.48047 2.95312V0.953125H7.64109L7.48746 2.78608L9.48047 2.95312ZM72.2344 2.95312H74.2344V0.953125H72.2344V2.95312ZM72.2344 17.1914L72.2415 19.1914L74.2344 19.1843V17.1914H72.2344ZM22.8398 17.3672L22.8327 15.3672L20.9937 15.3737L20.8463 17.2069L22.8398 17.3672ZM20.0273 52.3477L18.0338 52.1874L17.7118 56.1918L21.1011 54.035L20.0273 52.3477ZM36.5508 47.4258H38.5508V45.4258H36.5508V47.4258ZM36.5508 61.1367L36.6389 63.1348L38.5508 63.0504V61.1367H36.5508ZM17.5664 71.6836L16.5374 73.3986L18.134 74.3565L19.2035 72.8324L17.5664 71.6836ZM45.1641 126H43.1641V128.061L45.2237 127.999L45.1641 126ZM45.1641 112.113L44.998 110.12L43.1641 110.273V112.113H45.1641ZM62.5664 102.621L64.1313 103.867L64.132 103.866L62.5664 102.621ZM55.0078 63.9492L54.0634 65.7122L54.0787 65.7204L54.0942 65.7284L55.0078 63.9492ZM45.1641 61.1367H43.1641V63.0666L45.0927 63.1354L45.1641 61.1367ZM45.1641 47.4258L45.1799 45.4258L43.1641 45.4098V47.4258H45.1641ZM76.9805 65.3555L75.224 66.312L75.2247 66.3132L76.9805 65.3555ZM66.6094 118.969L67.7462 120.614L67.7556 120.608L67.7649 120.601L66.6094 118.969ZM3.32812 101.566L2.74174 99.6543L0.938039 100.207L1.38508 102.04L3.32812 101.566ZM16.5117 97.5234L18.3952 96.8508L17.7524 95.051L15.9253 95.6113L16.5117 97.5234ZM34.4414 111.586L34.8336 109.625L34.7667 109.611L34.699 109.603L34.4414 111.586ZM36.1992 111.762H38.1992V109.762H36.1992V111.762ZM36.1992 126V128H38.1992V126H36.1992ZM10.8867 115.102L9.41241 116.453L9.42502 116.467L9.43789 116.48L10.8867 115.102ZM6.37582 63.9405L11.4735 3.12017L7.48746 2.78608L2.3898 63.6064L6.37582 63.9405ZM9.48047 4.95312H72.2344V0.953125H9.48047V4.95312ZM70.2344 2.95312V17.1914H74.2344V2.95312H70.2344ZM72.2273 15.1914L22.8327 15.3672L22.847 19.3672L72.2415 19.1914L72.2273 15.1914ZM20.8463 17.2069L18.0338 52.1874L22.0209 52.5079L24.8334 17.5275L20.8463 17.2069ZM21.1011 54.035C25.951 50.9487 31.0886 49.4258 36.5508 49.4258V45.4258C30.2942 45.4258 24.4162 47.1841 18.9536 50.6603L21.1011 54.035ZM34.5508 47.4258V61.1367H38.5508V47.4258H34.5508ZM36.4626 59.1387C27.8572 59.5183 20.9637 63.3607 15.9293 70.5347L19.2035 72.8324C23.5441 66.6471 29.3069 63.4583 36.6389 63.1348L36.4626 59.1387ZM18.5954 69.9686L5.4118 62.0584L3.35382 65.4884L16.5374 73.3986L18.5954 69.9686ZM47.1641 126V112.113H43.1641V126H47.1641ZM45.3302 114.106C52.9351 113.473 59.2332 110.021 64.1313 103.867L61.0016 101.376C56.759 106.706 51.4555 109.582 44.998 110.12L45.3302 114.106ZM64.132 103.866C68.0591 98.9251 70.0156 93.1494 70.0156 86.625H66.0156C66.0156 92.2881 64.3393 97.1765 61.0008 101.377L64.132 103.866ZM70.0156 86.625C70.0156 81.0215 68.8752 76.106 66.4985 71.9628C64.116 67.8095 60.5589 64.5515 55.9214 62.1701L54.0942 65.7284C58.1286 67.8001 61.0754 70.5479 63.0288 73.9532C64.9881 77.3687 66.0156 81.5645 66.0156 86.625H70.0156ZM55.9523 62.1863C52.438 60.3036 48.8604 59.2675 45.2354 59.138L45.0927 63.1354C48.0302 63.2404 51.0151 64.0792 54.0634 65.7122L55.9523 62.1863ZM47.1641 61.1367V47.4258H43.1641V61.1367H47.1641ZM45.1482 49.4257C59.2722 49.5378 69.1651 55.1856 75.224 66.312L78.7369 64.399C71.9052 51.8535 60.5872 45.5481 45.1799 45.4258L45.1482 49.4257ZM75.2247 66.3132C78.569 72.4444 80.2539 79.2599 80.2539 86.8008H84.2539C84.2539 78.6385 82.4232 71.1572 78.7363 64.3978L75.2247 66.3132ZM80.2539 86.8008C80.2539 100.29 75.2947 110.37 65.4538 117.336L67.7649 120.601C78.7834 112.802 84.2539 101.436 84.2539 86.8008H80.2539ZM65.4725 117.323C59.3455 121.556 52.5714 123.778 45.1044 124.001L45.2237 127.999C53.4599 127.753 60.9826 125.287 67.7462 120.614L65.4725 117.323ZM3.91451 103.479L17.0981 99.4355L15.9253 95.6113L2.74174 99.6543L3.91451 103.479ZM14.6282 98.1961C16.201 102.6 18.63 106.156 21.9571 108.765C25.2796 111.371 29.3865 112.946 34.1838 113.569L34.699 109.603C30.4729 109.054 27.0798 107.699 24.4257 105.618C21.7762 103.54 19.7521 100.65 18.3952 96.8508L14.6282 98.1961ZM34.0492 113.547C34.7617 113.69 35.479 113.762 36.1992 113.762V109.762C35.7476 109.762 35.293 109.717 34.8336 109.625L34.0492 113.547ZM34.1992 111.762V126H38.1992V111.762H34.1992ZM36.1992 124C26.7902 124 18.875 120.595 12.3356 113.723L9.43789 116.48C16.7265 124.14 25.6864 128 36.1992 128V124ZM12.361 113.75C8.68543 109.74 6.35144 105.522 5.27117 101.092L1.38508 102.04C2.64856 107.221 5.35364 112.025 9.41241 116.453L12.361 113.75Z" fill="#F5E161"/>
</svg>
