<svg width="75" height="128" viewBox="0 0 75 128" fill="none" xmlns="http://www.w3.org/2000/svg">
<path d="M72.2891 17.3672H2.15234V2.95312H72.2891V17.3672ZM28.3438 126C29.75 99.1641 35.6094 72.6211 45.9219 46.3711C48.8516 38.9883 51.957 32.1914 55.2383 25.9805H71.0586C57.4648 51.7617 48.793 80.4727 45.043 112.113C44.457 116.918 44.0469 121.547 43.8125 126H28.3438Z" fill="#F7D601" fill-opacity="0.6"/>
<path d="M72.2891 17.3672V19.3672H74.2891V17.3672H72.2891ZM2.15234 17.3672H0.152344V19.3672H2.15234V17.3672ZM2.15234 2.95312V0.953125H0.152344V2.95312H2.15234ZM72.2891 2.95312H74.2891V0.953125H72.2891V2.95312ZM28.3438 126L26.3465 125.895L26.2362 128H28.3438V126ZM45.9219 46.3711L44.0629 45.6334L44.0604 45.6398L45.9219 46.3711ZM55.2383 25.9805V23.9805H54.0329L53.4699 25.0462L55.2383 25.9805ZM71.0586 25.9805L72.8277 26.9133L74.3741 23.9805H71.0586V25.9805ZM45.043 112.113L47.0283 112.355L47.0291 112.349L45.043 112.113ZM43.8125 126V128H45.71L45.8097 126.105L43.8125 126ZM72.2891 15.3672H2.15234V19.3672H72.2891V15.3672ZM4.15234 17.3672V2.95312H0.152344V17.3672H4.15234ZM2.15234 4.95312H72.2891V0.953125H2.15234V4.95312ZM70.2891 2.95312V17.3672H74.2891V2.95312H70.2891ZM30.341 126.105C31.7355 99.494 37.5456 73.1622 47.7834 47.1024L44.0604 45.6398C33.6731 72.08 27.7645 98.8341 26.3465 125.895L30.341 126.105ZM47.7809 47.1088C50.6873 39.7846 53.7632 33.0542 57.0067 26.9147L53.4699 25.0462C50.1509 31.3286 47.0158 38.192 44.0629 45.6334L47.7809 47.1088ZM55.2383 27.9805H71.0586V23.9805H55.2383V27.9805ZM69.2895 25.0477C55.571 51.0655 46.8331 80.0162 43.0569 111.878L47.0291 112.349C50.7529 80.9291 59.3587 52.458 72.8277 26.9133L69.2895 25.0477ZM43.0577 111.871C42.4667 116.718 42.0522 121.392 41.8153 125.895L45.8097 126.105C46.0415 121.701 46.4474 117.118 47.0283 112.355L43.0577 111.871ZM43.8125 124H28.3438V128H43.8125V124Z" fill="#F5E161"/>
</svg>
