<svg width="84" height="128" viewBox="0 0 84 128" fill="none" xmlns="http://www.w3.org/2000/svg">
<path d="M38.1875 125.176V110.938C29.8672 110.469 24.0664 105.781 20.7852 96.875C19.7305 93.7109 19.2031 90.7227 19.2031 87.9102C19.2031 78.8867 22.25 72.207 28.3438 67.8711C31.2734 65.8789 34.5547 64.7656 38.1875 64.5312V50.293C29.2812 50.293 22.6016 53.3398 18.1484 59.4336C17.6797 59.9023 17.3281 60.3711 17.0938 60.8398C17.0938 36.2305 22.7773 21.8164 34.1445 17.5977C35.4336 17.1289 36.7812 16.7773 38.1875 16.543V2.30469C20.375 3.24219 9.06641 15.4883 4.26172 39.043C2.85547 46.4258 2.15234 54.3945 2.15234 62.9492C2.15234 91.8945 7.83594 110.645 19.2031 119.199C24.3594 122.949 30.6875 124.941 38.1875 125.176ZM47.6797 125.176C57.7578 125.059 66.0781 120.957 72.6406 112.871C78.3828 105.723 81.2539 97.3438 81.2539 87.7344C81.2539 74.1406 76.918 63.8867 68.2461 56.9727C62.6211 52.5195 55.7656 50.293 47.6797 50.293V64.3555C54.9453 65.0586 60.3359 68.6914 63.8516 75.2539C65.7266 79.0039 66.6641 83.2227 66.6641 87.9102C66.6641 95.0586 64.2031 101.035 59.2812 105.84C55.8828 108.887 52.0156 110.586 47.6797 110.938V125.176ZM64.9062 28.6719L76.8594 20.5859C72.7578 12.3828 66.4883 6.81641 58.0508 3.88672C54.6523 2.71484 51.1953 2.12891 47.6797 2.12891V16.3672C54.125 16.3672 59.2227 19.2383 62.9727 24.9805C63.793 26.2695 64.4375 27.5 64.9062 28.6719Z" fill="#F7D601" fill-opacity="0.6"/>
<path d="M38.1875 125.176L38.125 127.175L40.1875 127.239V125.176H38.1875ZM38.1875 110.938H40.1875V109.047L38.3 108.941L38.1875 110.938ZM20.7852 96.875L18.8878 97.5075L18.8977 97.5371L18.9085 97.5664L20.7852 96.875ZM28.3438 67.8711L27.2191 66.2172L27.2016 66.2292L27.1842 66.2415L28.3438 67.8711ZM38.1875 64.5312L38.3163 66.5271L40.1875 66.4064V64.5312H38.1875ZM38.1875 50.293H40.1875V48.293H38.1875V50.293ZM18.1484 59.4336L19.5627 60.8478L19.672 60.7385L19.7632 60.6136L18.1484 59.4336ZM17.0938 60.8398H15.0938L18.8826 61.7343L17.0938 60.8398ZM34.1445 17.5977L33.461 15.718L33.4486 15.7226L34.1445 17.5977ZM38.1875 16.543L38.5163 18.5158L40.1875 18.2372V16.543H38.1875ZM38.1875 2.30469H40.1875V0.196655L38.0824 0.307453L38.1875 2.30469ZM4.26172 39.043L2.30207 38.6432L2.29947 38.656L2.29704 38.6687L4.26172 39.043ZM19.2031 119.199L18.0005 120.797L18.0136 120.807L18.0268 120.817L19.2031 119.199ZM47.6797 125.176H45.6797V127.199L47.7029 127.176L47.6797 125.176ZM72.6406 112.871L74.1936 114.131L74.1999 114.124L72.6406 112.871ZM68.2461 56.9727L69.4929 55.4089L69.4875 55.4046L68.2461 56.9727ZM47.6797 50.293V48.293H45.6797V50.293H47.6797ZM47.6797 64.3555H45.6797V66.1713L47.487 66.3462L47.6797 64.3555ZM63.8516 75.2539L65.6404 74.3595L65.6278 74.3343L65.6145 74.3095L63.8516 75.2539ZM59.2812 105.84L60.6163 107.329L60.6479 107.301L60.6783 107.271L59.2812 105.84ZM47.6797 110.938L47.5181 108.944L45.6797 109.093V110.938H47.6797ZM64.9062 28.6719L63.0493 29.4147L63.9711 31.7191L66.0269 30.3284L64.9062 28.6719ZM76.8594 20.5859L77.98 22.2425L79.4325 21.26L78.6482 19.6915L76.8594 20.5859ZM58.0508 3.88672L58.7068 1.99737L58.7028 1.99597L58.0508 3.88672ZM47.6797 2.12891V0.128906H45.6797V2.12891H47.6797ZM47.6797 16.3672H45.6797V18.3672H47.6797V16.3672ZM62.9727 24.9805L64.66 23.9067L64.6536 23.8968L64.6472 23.8869L62.9727 24.9805ZM40.1875 125.176V110.938H36.1875V125.176H40.1875ZM38.3 108.941C34.5068 108.727 31.3904 107.565 28.8537 105.515C26.301 103.452 24.2112 100.389 22.6618 96.1836L18.9085 97.5664C20.6404 102.267 23.0916 106.001 26.3396 108.626C29.6037 111.264 33.5479 112.679 38.075 112.934L38.3 108.941ZM22.6825 96.2425C21.6835 93.2456 21.2031 90.472 21.2031 87.9102H17.2031C17.2031 90.9733 17.7774 94.1763 18.8878 97.5075L22.6825 96.2425ZM21.2031 87.9102C21.2031 79.3825 24.0492 73.3815 29.5033 69.5007L27.1842 66.2415C20.4508 71.0326 17.2031 78.391 17.2031 87.9102H21.2031ZM29.4684 69.5249C32.0942 67.7394 35.0297 66.7391 38.3163 66.5271L38.0587 62.5354C34.0797 62.7921 30.4527 64.0184 27.2191 66.2172L29.4684 69.5249ZM40.1875 64.5312V50.293H36.1875V64.5312H40.1875ZM38.1875 48.293C28.7735 48.293 21.4342 51.5475 16.5337 58.2536L19.7632 60.6136C23.7689 55.1322 29.789 52.293 38.1875 52.293V48.293ZM16.7342 58.0194C16.1518 58.6018 15.657 59.2412 15.3049 59.9454L18.8826 61.7343C18.9993 61.501 19.2075 61.2029 19.5627 60.8478L16.7342 58.0194ZM19.0938 60.8398C19.0938 48.6558 20.5054 39.1827 23.217 32.3059C25.9122 25.4708 29.8294 21.3324 34.8404 19.4727L33.4486 15.7226C27.0925 18.0816 22.4843 23.2597 19.4959 30.8386C16.5239 38.3759 15.0938 48.4145 15.0938 60.8398H19.0938ZM34.828 19.4772C35.9975 19.052 37.2261 18.7308 38.5163 18.5158L37.8587 14.5702C36.3364 14.8239 34.8697 15.2058 33.461 15.7181L34.828 19.4772ZM40.1875 16.543V2.30469H36.1875V16.543H40.1875ZM38.0824 0.307453C28.6955 0.801495 20.9119 4.30067 14.8773 10.8355C8.88906 17.3203 4.74695 26.6574 2.30207 38.6432L6.22137 39.4427C8.58118 27.8739 12.4957 19.3106 17.816 13.5492C23.09 7.838 29.867 4.74538 38.2926 4.30193L38.0824 0.307453ZM2.29704 38.6687C0.864335 46.1905 0.152344 54.2858 0.152344 62.9492H4.15234C4.15234 54.5032 4.8466 46.6611 6.2264 39.4172L2.29704 38.6687ZM0.152344 62.9492C0.152344 77.5341 1.58204 89.6712 4.50104 99.3009C7.42051 108.932 11.871 116.184 18.0005 120.797L20.4058 117.601C15.1681 113.659 11.0932 107.259 8.32904 98.1405C5.56444 89.0202 4.15234 77.3097 4.15234 62.9492H0.152344ZM18.0268 120.817C23.5618 124.842 30.2965 126.93 38.125 127.175L38.25 123.177C31.0785 122.953 25.1569 121.056 20.3795 117.582L18.0268 120.817ZM47.7029 127.176C58.3979 127.051 67.2708 122.661 74.1935 114.131L71.0877 111.611C64.8855 119.253 57.1177 123.066 47.6564 123.176L47.7029 127.176ZM74.1999 114.124C80.2418 106.602 83.2539 97.7757 83.2539 87.7344H79.2539C79.2539 96.9118 76.5239 104.843 71.0814 111.619L74.1999 114.124ZM83.2539 87.7344C83.2539 73.6836 78.7479 62.7878 69.4929 55.4089L66.9993 58.5365C75.088 64.9856 79.2539 74.5977 79.2539 87.7344H83.2539ZM69.4875 55.4046C63.4645 50.6364 56.1558 48.293 47.6797 48.293V52.293C55.3754 52.293 61.7776 54.4027 67.0047 58.5407L69.4875 55.4046ZM45.6797 50.293V64.3555H49.6797V50.293H45.6797ZM47.487 66.3462C54.0715 66.9834 58.8811 70.211 62.0886 76.1983L65.6145 74.3095C61.7908 67.1718 55.8192 63.1338 47.8723 62.3648L47.487 66.3462ZM62.0627 76.1483C63.7832 79.5893 64.6641 83.4961 64.6641 87.9102H68.6641C68.6641 82.9492 67.6699 78.4185 65.6404 74.3595L62.0627 76.1483ZM64.6641 87.9102C64.6641 94.5435 62.4039 99.9966 57.8842 104.409L60.6783 107.271C66.0024 102.074 68.6641 95.5737 68.6641 87.9102H64.6641ZM57.9462 104.351C54.8561 107.121 51.3958 108.63 47.5181 108.944L47.8413 112.931C52.6354 112.542 56.9095 110.652 60.6163 107.329L57.9462 104.351ZM45.6797 110.938V125.176H49.6797V110.938H45.6797ZM66.0269 30.3284L77.98 22.2425L75.7388 18.9294L63.7856 27.0153L66.0269 30.3284ZM78.6482 19.6915C74.3203 11.0356 67.6518 5.10327 58.7068 1.99737L57.3948 5.77607C65.3248 8.52954 71.1953 13.73 75.0705 21.4804L78.6482 19.6915ZM58.7028 1.99597C55.0994 0.753422 51.4222 0.128906 47.6797 0.128906V4.12891C50.9684 4.12891 54.2053 4.67627 57.3988 5.77747L58.7028 1.99597ZM45.6797 2.12891V16.3672H49.6797V2.12891H45.6797ZM47.6797 18.3672C53.3994 18.3672 57.8891 20.8541 61.2981 26.074L64.6472 23.8869C60.5562 17.6225 54.8506 14.3672 47.6797 14.3672V18.3672ZM61.2853 26.0542C62.0523 27.2595 62.6351 28.3792 63.0493 29.4147L66.7632 27.9291C66.2399 26.6208 65.5336 25.2795 64.66 23.9067L61.2853 26.0542Z" fill="#F5E161"/>
</svg>
