<svg width="82" height="128" viewBox="0 0 82 128" fill="none" xmlns="http://www.w3.org/2000/svg">
<path d="M2.86719 100.626V86.3877L45.7578 13.4385V40.6846L18.8633 86.3877H45.7578V100.626H2.86719ZM54.5469 125.938V2.71582H70.0156V86.3877H79.5078V100.626H70.0156V125.938H54.5469Z" fill="#F7D601" fill-opacity="0.6"/>
<path d="M2.86719 100.626H0.867188V102.626H2.86719V100.626ZM2.86719 86.3877L1.14311 85.374L0.867188 85.8433V86.3877H2.86719ZM45.7578 13.4385H47.7578V6.09081L44.0337 12.4248L45.7578 13.4385ZM45.7578 40.6846L47.4815 41.6989L47.7578 41.2294V40.6846H45.7578ZM18.8633 86.3877L17.1396 85.3734L15.3658 88.3877H18.8633V86.3877ZM45.7578 86.3877H47.7578V84.3877H45.7578V86.3877ZM45.7578 100.626V102.626H47.7578V100.626H45.7578ZM54.5469 125.938H52.5469V127.938H54.5469V125.938ZM54.5469 2.71582V0.71582H52.5469V2.71582H54.5469ZM70.0156 2.71582H72.0156V0.71582H70.0156V2.71582ZM70.0156 86.3877H68.0156V88.3877H70.0156V86.3877ZM79.5078 86.3877H81.5078V84.3877H79.5078V86.3877ZM79.5078 100.626V102.626H81.5078V100.626H79.5078ZM70.0156 100.626V98.626H68.0156V100.626H70.0156ZM70.0156 125.938V127.938H72.0156V125.938H70.0156ZM4.86719 100.626V86.3877H0.867188V100.626H4.86719ZM4.59127 87.4014L47.4819 14.4522L44.0337 12.4248L1.14311 85.374L4.59127 87.4014ZM43.7578 13.4385V40.6846H47.7578V13.4385H43.7578ZM44.0341 39.6702L17.1396 85.3734L20.587 87.402L47.4815 41.6989L44.0341 39.6702ZM18.8633 88.3877H45.7578V84.3877H18.8633V88.3877ZM43.7578 86.3877V100.626H47.7578V86.3877H43.7578ZM45.7578 98.626H2.86719V102.626H45.7578V98.626ZM56.5469 125.938V2.71582H52.5469V125.938H56.5469ZM54.5469 4.71582H70.0156V0.71582H54.5469V4.71582ZM68.0156 2.71582V86.3877H72.0156V2.71582H68.0156ZM70.0156 88.3877H79.5078V84.3877H70.0156V88.3877ZM77.5078 86.3877V100.626H81.5078V86.3877H77.5078ZM79.5078 98.626H70.0156V102.626H79.5078V98.626ZM68.0156 100.626V125.938H72.0156V100.626H68.0156ZM70.0156 123.938H54.5469V127.938H70.0156V123.938Z" fill="#F5E161"/>
</svg>
