<svg width="76" height="124" viewBox="0 0 76 124" fill="none" xmlns="http://www.w3.org/2000/svg">
<path d="M0.0214844 32.5938C0.607422 23.2188 4.5332 15.3086 11.7988 8.86328C17.6582 3.94141 24.2207 1.30469 31.4863 0.953125V15.1914C27.8535 15.1914 24.2793 16.7148 20.7637 19.7617C16.6621 23.5117 14.2012 28.668 13.3809 35.2305L0.0214844 32.5938ZM3.53711 124V109.059H74.5527V124H3.53711ZM3.53711 100.797C3.53711 88.2578 11.7988 77.0078 28.3223 67.0469C29.8457 66.1094 31.9551 64.9375 34.6504 63.5312C37.2285 62.0078 38.9863 60.9531 39.9238 60.3672C48.127 55.3281 53.4004 51.5781 55.7441 49.1172C59.4941 45.1328 61.3691 40.9141 61.3691 36.4609C61.3691 25.0938 56.623 18.2383 47.1309 15.8945C45.0215 15.4258 42.7363 15.1914 40.2754 15.1914V0.953125C56.916 0.953125 67.873 7.33984 73.1465 20.1133C75.0215 25.0352 75.959 30.4258 75.959 36.2852C75.8418 46.1289 71.916 54.3906 64.1816 61.0703C61.7207 63.0625 58.6738 65.2305 55.041 67.5742C53.5176 68.5117 50.9395 69.918 47.3066 71.793C36.6426 77.5352 29.4941 82.5156 25.8613 86.7344C22.1113 91.0703 20.2363 95.7578 20.2363 100.797H3.53711Z" fill="#F8E465"/>
</svg>
