<svg width="40" height="41" viewBox="0 0 40 41" fill="none" xmlns="http://www.w3.org/2000/svg">
<circle cx="20" cy="20" r="19.5" stroke="#EBE2DB" stroke-opacity="0.5"/>
<circle cx="20.1505" cy="20.1505" r="18.6466" fill="#C4C4C4" fill-opacity="0.3"/>
<g filter="url(#filter0_d)">
<circle cx="20.0003" cy="20.0003" r="12.1805" fill="white" fill-opacity="0.5"/>
</g>
<g filter="url(#filter1_d)">
<path d="M22.9579 18.8197C22.906 18.366 22.7766 18.0098 22.5467 17.6943C22.2482 17.2881 21.8667 17.0448 21.302 16.9005C20.934 16.8043 20.7853 16.8153 20.6521 16.9463C20.5282 17.069 20.5039 17.315 20.5987 17.4743C20.6653 17.5899 20.7422 17.6313 20.956 17.6765C21.2407 17.733 21.4375 17.8062 21.6165 17.9164C21.9964 18.1527 22.1733 18.5225 22.1922 19.1211C22.2011 19.4021 22.2236 19.4885 22.3147 19.5882C22.4837 19.7704 22.7843 19.735 22.9118 19.5169C22.9586 19.4347 22.9657 19.399 22.9707 19.2081C22.9739 19.09 22.9692 18.9141 22.9579 18.8197Z" fill="#7FFF00"/>
<path d="M24.4463 19.3312C24.3712 17.9414 23.8666 16.8233 22.9633 16.0365C22.4544 15.5945 21.8393 15.2905 21.165 15.1427C20.9181 15.0898 20.4633 15.047 20.3853 15.0715C20.3117 15.0942 20.2075 15.18 20.1611 15.2577C20.1121 15.3419 20.101 15.5299 20.1429 15.6386C20.2104 15.8204 20.3362 15.8846 20.6882 15.9178C21.231 15.969 21.7908 16.1743 22.2137 16.4784C22.6966 16.8246 23.0805 17.2981 23.3288 17.8546C23.5434 18.3327 23.6753 19.0216 23.6717 19.6386C23.6705 19.8618 23.7024 19.9878 23.7858 20.0799C23.9115 20.2216 24.0948 20.2526 24.2566 20.1585C24.4359 20.0569 24.4778 19.8786 24.4463 19.3312Z" fill="#7FFF00"/>
<path d="M26.0928 24.683C26.0675 24.6036 26.0087 24.481 25.9666 24.4107C25.7015 23.9795 24.2774 22.7791 23.5664 22.3865C23.1604 22.1618 22.8596 22.087 22.6366 22.1573C22.3968 22.2299 22.2706 22.3502 21.8688 22.888C21.7068 23.1036 21.5406 23.3056 21.4965 23.3373C21.3871 23.419 21.1725 23.4848 21.021 23.4848C20.6697 23.4825 20.0324 23.2375 19.5422 22.9152C19.1615 22.6656 18.6735 22.2186 18.299 21.7761C17.8572 21.2564 17.5565 20.798 17.3187 20.2806C17.0116 19.6157 16.9338 19.2095 17.0621 18.9122C17.0936 18.8374 17.1357 18.758 17.1546 18.733C17.1736 18.7103 17.3713 18.5356 17.5901 18.3449C18.0192 17.9773 18.0886 17.8934 18.1686 17.6415C18.2695 17.3215 18.2422 16.9947 18.0865 16.6657C17.9666 16.4161 17.6532 15.8714 17.426 15.5197C17.1252 15.0568 16.3763 14.0674 16.2269 13.9335C15.9577 13.6975 15.6127 13.6566 15.2319 13.8155C14.8302 13.9834 14.0771 14.637 13.7552 15.0931C13.4649 15.5061 13.3535 15.7988 13.3366 16.1846C13.3219 16.5023 13.3472 16.6339 13.5028 17.0401C14.7208 20.2261 16.5383 22.77 19.0353 24.7897C20.3395 25.8448 21.6921 26.6482 23.0952 27.1974C23.9135 27.5173 24.269 27.5332 24.6876 27.27C24.8643 27.1565 25.3018 26.6731 25.5458 26.3214C25.9497 25.7359 26.0991 25.4659 26.1412 25.2503C26.1706 25.1028 26.1475 24.8464 26.0928 24.683Z" fill="#7FFF00"/>
<path d="M25.9609 19.6497C25.934 18.8636 25.8111 18.2187 25.5549 17.4998C25.3019 16.7926 25.0459 16.3311 24.5623 15.7069C24.1052 15.1217 23.7501 14.7875 23.187 14.4156C22.4013 13.8973 21.4451 13.5544 20.3736 13.4101C20.0082 13.3597 19.9255 13.3633 19.8134 13.4439C19.5962 13.5965 19.5991 13.9772 19.817 14.1276C19.8891 14.1754 19.9531 14.1928 20.2454 14.2341C20.6942 14.2991 20.9827 14.3605 21.3251 14.4611C22.6676 14.8564 23.7 15.6644 24.3902 16.8639C24.9678 17.8636 25.2076 18.8635 25.1736 20.1404C25.1617 20.5721 25.1703 20.6481 25.2316 20.7518C25.3489 20.9451 25.6583 20.9834 25.8171 20.823C25.9158 20.7252 25.9344 20.6518 25.9539 20.2823C25.9632 20.0896 25.9652 19.805 25.9609 19.6497Z" fill="#7FFF00"/>
</g>
<defs>
<filter id="filter0_d" x="3.81982" y="7.81982" width="32.3609" height="32.3609" filterUnits="userSpaceOnUse" color-interpolation-filters="sRGB">
<feFlood flood-opacity="0" result="BackgroundImageFix"/>
<feColorMatrix in="SourceAlpha" type="matrix" values="0 0 0 0 0 0 0 0 0 0 0 0 0 0 0 0 0 0 127 0"/>
<feOffset dy="4"/>
<feGaussianBlur stdDeviation="2"/>
<feColorMatrix type="matrix" values="0 0 0 0 0 0 0 0 0 0 0 0 0 0 0 0 0 0 0.25 0"/>
<feBlend mode="normal" in2="BackgroundImageFix" result="effect1_dropShadow"/>
<feBlend mode="normal" in="SourceGraphic" in2="effect1_dropShadow" result="shape"/>
</filter>
<filter id="filter1_d" x="9.33301" y="13.3768" width="20.821" height="22.0768" filterUnits="userSpaceOnUse" color-interpolation-filters="sRGB">
<feFlood flood-opacity="0" result="BackgroundImageFix"/>
<feColorMatrix in="SourceAlpha" type="matrix" values="0 0 0 0 0 0 0 0 0 0 0 0 0 0 0 0 0 0 127 0"/>
<feOffset dy="4"/>
<feGaussianBlur stdDeviation="2"/>
<feColorMatrix type="matrix" values="0 0 0 0 0 0 0 0 0 0 0 0 0 0 0 0 0 0 0.25 0"/>
<feBlend mode="normal" in2="BackgroundImageFix" result="effect1_dropShadow"/>
<feBlend mode="normal" in="SourceGraphic" in2="effect1_dropShadow" result="shape"/>
</filter>
</defs>
</svg>
