<svg width="54" height="54" viewBox="0 0 54 54" fill="none" xmlns="http://www.w3.org/2000/svg">
<rect width="54" height="54" fill="white"/>
<g clip-path="url(#clip0)">
<path d="M10.7268 10.8957C11.2678 10.8825 11.7822 10.6583 12.1602 10.271C12.5381 9.88373 12.7497 9.36402 12.7497 8.82287C12.7497 8.28171 12.5381 7.762 12.1602 7.37471C11.7822 6.98743 11.2678 6.76325 10.7268 6.75007H1V1.20947H11.1393C15.0202 1.20947 18.2953 4.22479 18.2953 8.82102C18.2953 11.9927 16.7107 13.6438 16.7107 13.6438C17.7437 14.9672 18.3018 16.5994 18.2953 18.2782C18.2953 22.26 15.0177 25.7395 11.1811 25.7395H1V20.2777H10.797C11.3267 20.2777 11.8346 20.0673 12.2091 19.6928C12.5837 19.3183 12.7941 18.8103 12.7941 18.2807C12.7941 17.751 12.5837 17.243 12.2091 16.8685C11.8346 16.494 11.3267 16.2836 10.797 16.2836H1V10.8957H10.7268Z" fill="#1A171B"/>
<path d="M17.6735 28.6807H1V34.1856H17.6735V28.6807Z" fill="#1A171B"/>
<path d="M1 42.1457H12.2486V36.3638H17.6735V53.5101H12.2486V47.7294H1V42.1457Z" fill="#1A171B"/>
<path d="M53.1434 19.8628H19.4565V53.5102H53.1434V19.8628Z" fill="#E2001A"/>
<path d="M53.1433 10.9461C53.156 11.9414 52.971 12.9293 52.5989 13.8525C52.2268 14.7758 51.6751 15.6159 50.9758 16.3242C50.2765 17.0325 49.4435 17.5949 48.5251 17.9788C47.6067 18.3626 46.6213 18.5603 45.6259 18.5603C44.6305 18.5603 43.6451 18.3626 42.7267 17.9788C41.8083 17.5949 40.9753 17.0325 40.276 16.3242C39.5767 15.6159 39.025 14.7758 38.6529 13.8525C38.2808 12.9293 38.0958 11.9414 38.1085 10.9461V1.21191H43.526V10.8501C43.5393 11.3995 43.7669 11.9219 44.1602 12.3058C44.5534 12.6897 45.0812 12.9046 45.6308 12.9046C46.1804 12.9046 46.7082 12.6897 47.1015 12.3058C47.4948 11.9219 47.7223 11.3995 47.7356 10.8501V1.21191H53.1531L53.1433 10.9461Z" fill="#1A171B"/>
<path d="M31.3366 9.83526C31.337 9.09313 31.0853 8.37287 30.6229 7.79247C30.1604 7.21207 29.5145 6.80594 28.791 6.64064C28.0675 6.47533 27.3093 6.56064 26.6407 6.8826C25.972 7.20455 25.4325 7.74405 25.1106 8.41271C24.7886 9.08138 24.7033 9.83956 24.8687 10.563C25.034 11.2865 25.4401 11.9324 26.0205 12.3949C26.6009 12.8574 27.3212 13.109 28.0633 13.1086C28.8055 13.1081 29.5255 12.8557 30.1053 12.3926V18.2373C28.34 18.653 26.4891 18.5089 24.8094 17.8248C23.1298 17.1408 21.7048 15.9508 20.7322 14.4201C19.7596 12.8894 19.2877 11.0938 19.3819 9.28265C19.4762 7.47151 20.132 5.73464 21.2583 4.31315C22.3845 2.89167 23.9254 1.85607 25.667 1.35013C27.4086 0.844192 29.2645 0.893001 30.9771 1.48978C32.6897 2.08657 34.174 3.20172 35.224 4.68044C36.274 6.15916 36.8376 7.9281 36.8366 9.74169V18.1572H31.3329L31.3366 9.83526Z" fill="#1A171B"/>
</g>
<defs>
<clipPath id="clip0">
<rect width="52.1431" height="52.5101" fill="white" transform="translate(1 1)"/>
</clipPath>
</defs>
</svg>
