<svg width="32" height="32" viewBox="0 0 32 32" fill="none" xmlns="http://www.w3.org/2000/svg">
<g clip-path="url(#clip0)">
<path d="M5.81217 5.91362C6.13544 5.90575 6.44281 5.77179 6.66866 5.54037C6.89451 5.30895 7.02093 4.9984 7.02093 4.67504C7.02093 4.35168 6.89451 4.04113 6.66866 3.80971C6.44281 3.57829 6.13544 3.44434 5.81217 3.43646H0V0.125732H6.05863C8.37762 0.125732 10.3346 1.92751 10.3346 4.67394C10.3346 6.56915 9.38776 7.55575 9.38776 7.55575C10.005 8.34651 10.3385 9.32184 10.3346 10.325C10.3346 12.7043 8.37615 14.7834 6.08365 14.7834H0V11.5198H5.8541C6.1706 11.5198 6.47413 11.3941 6.69792 11.1703C6.92171 10.9465 7.04744 10.643 7.04744 10.3265C7.04744 10.01 6.92171 9.70644 6.69792 9.48265C6.47413 9.25885 6.1706 9.13313 5.8541 9.13313H0V5.91362H5.81217Z" fill="#1A171B"/>
<path d="M9.96309 16.5405H0V19.8299H9.96309V16.5405Z" fill="#1A171B"/>
<path d="M0 24.5864H6.72152V21.1315H9.96309V31.3771H6.72152V27.9229H0V24.5864Z" fill="#1A171B"/>
<path d="M31.1576 11.2714H11.0283V31.3771H31.1576V11.2714Z" fill="#E2001A"/>
<path d="M31.1576 5.94317C31.1652 6.5379 31.0546 7.12821 30.8323 7.67987C30.61 8.23153 30.2803 8.73355 29.8624 9.1568C29.4446 9.58005 28.9468 9.91611 28.398 10.1455C27.8493 10.3748 27.2604 10.493 26.6656 10.493C26.0709 10.493 25.482 10.3748 24.9332 10.1455C24.3845 9.91611 23.8867 9.58005 23.4688 9.1568C23.051 8.73355 22.7213 8.23153 22.499 7.67987C22.2767 7.12821 22.1661 6.5379 22.1737 5.94317V0.126587H25.4109V5.88579C25.4188 6.21408 25.5548 6.52627 25.7898 6.75565C26.0248 6.98504 26.3402 7.11344 26.6686 7.11344C26.997 7.11344 27.3124 6.98504 27.5474 6.75565C27.7824 6.52627 27.9184 6.21408 27.9263 5.88579V0.126587H31.1635L31.1576 5.94317Z" fill="#1A171B"/>
<path d="M18.1275 5.27934C18.1277 4.83589 17.9774 4.4055 17.701 4.05868C17.4247 3.71187 17.0387 3.4692 16.6064 3.37042C16.1741 3.27164 15.721 3.32262 15.3215 3.515C14.9219 3.70738 14.5996 4.02975 14.4072 4.42931C14.2148 4.82886 14.1639 5.28191 14.2627 5.71422C14.3614 6.14653 14.6041 6.53247 14.9509 6.80881C15.2978 7.08516 15.7282 7.23552 16.1716 7.23527C16.6151 7.23502 17.0453 7.08416 17.3918 6.80742V10.2999C16.3369 10.5483 15.2309 10.4622 14.2273 10.0534C13.2236 9.6447 12.3721 8.93364 11.7909 8.01896C11.2098 7.10428 10.9278 6.03136 10.9841 4.94913C11.0404 3.8669 11.4323 2.82905 12.1053 1.97965C12.7783 1.13026 13.699 0.51145 14.7397 0.20913C15.7804 -0.0931909 16.8894 -0.0640256 17.9127 0.292577C18.936 0.649179 19.823 1.31553 20.4504 2.19912C21.0778 3.08272 21.4146 4.13973 21.414 5.22342V10.2521H18.1253L18.1275 5.27934Z" fill="#1A171B"/>
</g>
<defs>
<clipPath id="clip0">
<rect width="31.1576" height="31.3769" fill="white"/>
</clipPath>
</defs>
</svg>
